<svg fill="none" height="24" viewBox="0 0 24 24" width="24" xmlns="http://www.w3.org/2000/svg"><path d="m16.19 2h-8.38c-3.64 0-5.81 2.17-5.81 5.81v8.37c0 3.65 2.17 5.82 5.81 5.82h8.37c3.64 0 5.81-2.17 5.81-5.81v-8.38c.01-3.64-2.16-5.81-5.8-5.81zm-2.27 14.63h-4.92c-.41 0-.75-.34-.75-.75s.34-.75.75-.75h4.92c1.28 0 2.33-1.04 2.33-2.33s-1.04-2.33-2.33-2.33h-5.07l.26.26c.29.29.29.77 0 1.06-.15.15-.34.22-.53.22s-.38-.07-.53-.22l-1.57-1.57c-.29-.29-.29-.77 0-1.06l1.57-1.57c.29-.29.77-.29 1.06 0s.29.77 0 1.06l-.34.33h5.15c2.11 0 3.83 1.72 3.83 3.83s-1.72 3.82-3.83 3.82z" fill="#292d32"/></svg>